{
  "source": "C:\\Users\\Peter\\Desktop\\stuff\\MIUN\\quantitative_research\\video_compression\\videos\\BVI-HD\\BVI-HD_CDVL_videos\\ORIG\\SmokeGuns_1920x1080_60fps.mp4",
  "output": "C:\\Users\\Peter\\Desktop\\stuff\\MIUN\\quantitative_research\\video_compression\\compressed_videos\\BVI-HD\\h264\\8\\SmokeGuns_1920x1080_60fps_h264.mp4",
  "codec": "h264",
  "ok": "Input #0, mov,mp4,m4a,3gp,3g2,mj2, from 'C:\\Users\\Peter\\Desktop\\stuff\\MIUN\\quantitative_research\\video_compression\\videos\\BVI-HD\\BVI-HD_CDVL_videos\\ORIG\\SmokeGuns_1920x1080_60fps.mp4':\n  Metadata:\n    major_brand     : isom\n    minor_version   : 512\n    compatible_brands: isomiso2avc1mp41\n    encoder         : Lavf54.28.101\n  Duration: 00:00:05.00, start: 0.000000, bitrate: 384353 kb/s\n  Stream #0:0[0x1](und): Video: h264 (High 4:4:4 Predictive) (avc1 / 0x31637661), yuv420p(progressive), 1920x1080, 384348 kb/s, 60 fps, 60 tbr, 60 tbn (default)\n    Metadata:\n      handler_name    : VideoHandler\n      vendor_id       : [0][0][0][0]\n[out#0/mp4 @ 000001ae54469c00] Codec AVOption b:a (set bitrate (in bits/s)) has not been used for any stream. The most likely reason is either wrong type (e.g. a video option with no video streams) or that it is a private option of some decoder which was not actually used for any stream.\nStream mapping:\n  Stream #0:0 -> #0:0 (h264 (native) -> h264 (libx264))\nPress [q] to stop, [?] for help\n[libx264 @ 000001ae54a40ac0] using cpu capabilities: MMX2 SSE2Fast SSSE3 SSE4.2 AVX FMA3 BMI2 AVX2\n[libx264 @ 000001ae54a40ac0] profile High, level 5.0, 4:2:0, 8-bit\n[libx264 @ 000001ae54a40ac0] 264 - core 165 r3222 b35605a - H.264/MPEG-4 AVC codec - Copyleft 2003-2025 - http://www.videolan.org/x264.html - options: cabac=1 ref=5 deblock=1:0:0 analyse=0x3:0x113 me=hex subme=8 psy=1 psy_rd=1.00:0.00 mixed_ref=1 me_range=16 chroma_me=1 trellis=2 8x8dct=1 cqm=0 deadzone=21,11 fast_pskip=1 chroma_qp_offset=-2 threads=18 lookahead_threads=3 sliced_threads=0 nr=0 decimate=1 interlaced=0 bluray_compat=0 constrained_intra=0 bframes=3 b_pyramid=2 b_adapt=1 b_bias=0 direct=3 weightb=1 open_gop=0 weightp=2 keyint=250 keyint_min=25 scenecut=40 intra_refresh=0 rc_lookahead=50 rc=cbr mbtree=1 bitrate=8000 ratetol=1.0 qcomp=0.60 qpmin=0 qpmax=69 qpstep=4 vbv_maxrate=8000 vbv_bufsize=8000 nal_hrd=none filler=0 ip_ratio=1.40 aq=1:1.00\nOutput #0, mp4, to 'C:\\Users\\Peter\\Desktop\\stuff\\MIUN\\quantitative_research\\video_compression\\compressed_videos\\BVI-HD\\h264\\8\\SmokeGuns_1920x1080_60fps_h264.mp4':\n  Metadata:\n    major_brand     : isom\n    minor_version   : 512\n    compatible_brands: isomiso2avc1mp41\n    encoder         : Lavf62.3.100\n  Stream #0:0(und): Video: h264 (avc1 / 0x31637661), yuv420p(tv, progressive), 1920x1080, q=2-31, 8000 kb/s, 60 fps, 15360 tbn (default)\n    Metadata:\n      encoder         : Lavc62.11.100 libx264\n      handler_name    : VideoHandler\n      vendor_id       : [0][0][0][0]\n    Side data:\n      cpb: bitrate max/min/avg: 8000000/0/8000000 buffer size: 8000000 vbv_delay: N/A\nframe=    0 fps=0.0 q=0.0 size=       0KiB time=N/A bitrate=N/A speed=N/A elapsed=0:00:01.04    \nframe=    0 fps=0.0 q=0.0 size=       0KiB time=N/A bitrate=N/A speed=N/A elapsed=0:00:01.58    \nframe=    5 fps=2.3 q=33.0 size=       0KiB time=00:00:00.05 bitrate=   7.7kbits/s speed=0.0234x elapsed=0:00:02.13    \nframe=   25 fps=9.4 q=30.0 size=     256KiB time=00:00:00.38 bitrate=5471.8kbits/s speed=0.144x elapsed=0:00:02.65    \nframe=   45 fps= 14 q=30.0 size=     256KiB time=00:00:00.70 bitrate=2996.5kbits/s speed=0.219x elapsed=0:00:03.18    \nframe=   57 fps= 15 q=29.0 size=     512KiB time=00:00:00.85 bitrate=4934.9kbits/s speed=0.227x elapsed=0:00:03.74    \nframe=   71 fps= 16 q=30.0 size=     768KiB time=00:00:01.11 bitrate=5634.5kbits/s speed=0.257x elapsed=0:00:04.35    \nframe=   85 fps= 17 q=30.0 size=    1024KiB time=00:00:01.33 bitrate=6291.7kbits/s speed=0.271x elapsed=0:00:04.92    \nframe=   97 fps= 18 q=30.0 size=    1280KiB time=00:00:01.58 bitrate=6622.8kbits/s speed=0.287x elapsed=0:00:05.51    \nframe=  108 fps= 18 q=30.0 size=    1536KiB time=00:00:01.71 bitrate=7330.1kbits/s speed=0.28x elapsed=0:00:06.13    \nframe=  121 fps= 18 q=30.0 size=    1792KiB time=00:00:01.95 bitrate=7528.4kbits/s speed=0.29x elapsed=0:00:06.72    \nframe=  131 fps= 18 q=30.0 size=    1792KiB time=00:00:02.11 bitrate=6935.6kbits/s speed=0.289x elapsed=0:00:07.32    \nframe=  141 fps= 18 q=30.0 size=    2048KiB time=00:00:02.31 bitrate=7242.1kbits/s speed=0.294x elapsed=0:00:07.88    \nframe=  160 fps= 19 q=30.0 size=    2304KiB time=00:00:02.51 bitrate=7499.9kbits/s speed=0.299x elapsed=0:00:08.42    \nframe=  171 fps= 19 q=30.0 size=    2560KiB time=00:00:02.78 bitrate=7534.8kbits/s speed=0.307x elapsed=0:00:09.05    \nframe=  181 fps= 19 q=30.0 size=    2560KiB time=00:00:02.98 bitrate=7029.7kbits/s speed=0.311x elapsed=0:00:09.60    \nframe=  197 fps= 19 q=30.0 size=    2816KiB time=00:00:03.18 bitrate=7246.8kbits/s speed=0.313x elapsed=0:00:10.17    \nframe=  210 fps= 19 q=30.0 size=    3072KiB time=00:00:03.38 bitrate=7438.3kbits/s speed=0.314x elapsed=0:00:10.77    \nframe=  228 fps= 20 q=30.0 size=    3328KiB time=00:00:03.76 bitrate=7238.1kbits/s speed=0.33x elapsed=0:00:11.40    \nframe=  242 fps= 20 q=30.0 size=    3584KiB time=00:00:03.93 bitrate=7464.5kbits/s speed=0.327x elapsed=0:00:12.01    \nframe=  255 fps= 20 q=30.0 size=    3840KiB time=00:00:04.21 bitrate=7460.3kbits/s speed=0.335x elapsed=0:00:12.56    \nframe=  271 fps= 21 q=29.0 size=    4096KiB time=00:00:04.48 bitrate=7484.3kbits/s speed=0.342x elapsed=0:00:13.12    \nframe=  292 fps= 21 q=-1.0 size=    4352KiB time=00:00:04.81 bitrate=7401.8kbits/s speed=0.351x elapsed=0:00:13.70    \n[mp4 @ 000001ae5447a600] Starting second pass: moving the moov atom to the beginning of the file\n[out#0/mp4 @ 000001ae54469c00] video:4491KiB audio:0KiB subtitle:0KiB other streams:0KiB global headers:0KiB muxing overhead: 0.097995%\nframe=  300 fps= 22 q=-1.0 Lsize=    4496KiB time=00:00:04.96 bitrate=7415.4kbits/s speed=0.358x elapsed=0:00:13.87    \n[libx264 @ 000001ae54a40ac0] frame I:2     Avg QP:24.82  size:100466\n[libx264 @ 000001ae54a40ac0] frame P:76    Avg QP:26.30  size: 36995\n[libx264 @ 000001ae54a40ac0] frame B:222   Avg QP:27.95  size:  7144\n[libx264 @ 000001ae54a40ac0] consecutive B-frames:  1.3%  0.0%  0.0% 98.7%\n[libx264 @ 000001ae54a40ac0] mb I  I16..4: 12.6% 85.2%  2.2%\n[libx264 @ 000001ae54a40ac0] mb P  I16..4:  3.1% 10.5%  0.1%  P16..4: 54.4% 10.9%  4.1%  0.0%  0.0%    skip:16.9%\n[libx264 @ 000001ae54a40ac0] mb B  I16..4:  0.2%  0.3%  0.0%  B16..8: 33.4%  2.2%  0.3%  direct: 1.7%  skip:61.9%  L0:38.0% L1:56.4% BI: 5.6%\n[libx264 @ 000001ae54a40ac0] 8x8 transform intra:76.7% inter:91.6%\n[libx264 @ 000001ae54a40ac0] direct mvs  spatial:95.5% temporal:4.5%\n[libx264 @ 000001ae54a40ac0] coded y,uvDC,uvAC intra: 59.5% 73.7% 17.6% inter: 10.2% 17.9% 0.9%\n[libx264 @ 000001ae54a40ac0] i16 v,h,dc,p: 19% 17%  8% 57%\n[libx264 @ 000001ae54a40ac0] i8 v,h,dc,ddl,ddr,vr,hd,vl,hu: 13% 10% 12%  9% 11% 11% 11% 12% 12%\n[libx264 @ 000001ae54a40ac0] i4 v,h,dc,ddl,ddr,vr,hd,vl,hu: 11%  7%  2% 10% 17% 17% 15% 11% 11%\n[libx264 @ 000001ae54a40ac0] i8c dc,h,v,p: 48% 21% 19% 12%\n[libx264 @ 000001ae54a40ac0] Weighted P-Frames: Y:0.0% UV:0.0%\n[libx264 @ 000001ae54a40ac0] ref P L0: 46.2% 20.7% 19.8%  5.8%  7.4%\n[libx264 @ 000001ae54a40ac0] ref B L0: 79.9% 13.7%  5.1%  1.3%\n[libx264 @ 000001ae54a40ac0] ref B L1: 94.4%  5.6%\n[libx264 @ 000001ae54a40ac0] kb/s:7357.54\n",
  "seconds": 14.232284307479858,
  "probe_out": {}
}